<svg xmlns="http://www.w3.org/2000/svg" width="24" height="24" viewBox="0 0 24 24"><path fill="#444" d="M1 13h6q.414 0 .707.293T8 14t-.293.707T7 15H3.625l2.72 2.656Q7.5 18.82 8.99 19.414 10.422 20 12 20t3.008-.586q.78-.32 1.465-.785t1.164-.954.875-1.047.633-1.028.402-.938q.14-.39.516-.566t.758-.043q.392.14.567.512t.043.754q-.328 1-.953 1.985T19.07 19.07q-1.436 1.438-3.304 2.196Q13.954 22 12 22q-1.945 0-3.766-.734-1.867-.758-3.305-2.195L2 16.205V20q0 .415-.294.708T1 21 .29 20.71 0 20v-6q0-.413.292-.706T1 13zM12 2q1.945 0 3.766.734 1.867.758 3.305 2.195l.017.015L22 7.797V4q0-.414.294-.707T23 3t.708.293T24 4v6q0 .414-.292.707T23 11h-6q-.413 0-.706-.293T16 10t.294-.707T17 9h3.376l-2.72-2.656q-1.14-1.14-2.597-1.742T12 4q-1.578 0-3.008.586Q7.5 5.18 6.344 6.344q-.47.414-1.027 1.262t-.863 1.73q-.14.39-.516.566t-.758.043q-.39-.14-.566-.512T2.57 8.68q.33-1 .954-1.985T4.93 4.93Q6.367 3.49 8.235 2.733 10.055 2 12 2z"/></svg>