<svg xmlns="http://www.w3.org/2000/svg" width="24" height="24" viewBox="0 0 24 24"><path fill="#444" d="M12 1q2.242 0 4.277.87t3.508 2.345 2.344 3.508T23 12t-.87 4.277-2.345 3.508-3.508 2.344T12 23t-4.277-.87-3.508-2.345-2.344-3.508T1 12t.87-4.277 2.345-3.508T7.723 1.87 12 1zm0 2q-1.828 0-3.496.715t-2.87 1.918-1.92 2.87T3 12t.715 3.496 1.918 2.87 2.87 1.92T12 21t3.496-.715 2.87-1.918 1.92-2.87T21 12t-.715-3.496-1.918-2.87-2.87-1.92T12 3zm2.828 5.164q.414 0 .71.293t.298.707-.297.71L13.413 12l2.125 2.117q.296.297.296.703 0 .414-.297.707t-.712.293-.703-.29L12 13.415 9.883 15.53q-.29.29-.71.29-.415 0-.708-.29t-.293-.702q0-.422.29-.71L10.585 12 8.46 9.875q-.288-.29-.288-.703t.293-.71.707-.298.71.297L12 10.587l2.125-2.125q.297-.296.703-.296z"/></svg>