<svg xmlns="http://www.w3.org/2000/svg" width="24" height="24" viewBox="0 0 24 24"><path fill="#444" d="M4 1h7q.414 0 .707.293T12 2t-.293.707T11 3H4q-.414 0-.707.293T3 4v16q0 .414.293.707T4 21h16q.414 0 .707-.293T21 20v-7q0-.414.293-.707T22 12t.707.293T23 13v7q0 1.242-.88 2.12T20 23H4q-1.242 0-2.12-.88T1 20V4q0-1.242.88-2.12T4 1zm12 0h6q.414 0 .707.293T23 2v6q0 .414-.293.707T22 9t-.707-.293T21 8V4.414l-8.297 8.297q-.29.29-.703.29-.43 0-.715-.285T11 12q0-.414.29-.703L19.585 3H16q-.414 0-.707-.293T15 2t.293-.707T16 1z"/></svg>