<svg xmlns="http://www.w3.org/2000/svg" width="24" height="24" viewBox="0 0 24 24"><path fill="#444" d="M12 0q1.242 0 2.12.88T15 3v.516q.367.125.883.36l.36-.36q.882-.883 2.124-.883 1.234 0 2.117.883t.883 2.117q0 1.242-.883 2.125l-.36.36q.235.515.36.882H21q1.242 0 2.12.88T24 12t-.88 2.12T21 15h-.516q-.125.367-.36.883l.36.36q.883.882.883 2.124 0 1.234-.883 2.117t-2.117.883q-1.242 0-2.125-.883l-.36-.36q-.515.235-.882.36V21q0 1.242-.88 2.12T12 24t-2.12-.88T9 21v-.516q-.367-.125-.883-.36l-.36.36q-.882.883-2.116.883-1.24 0-2.12-.883t-.88-2.117q0-1.25.876-2.125l.36-.36q-.235-.515-.36-.882H3q-1.242 0-2.12-.88T0 12t.88-2.12T3 9h.516q.125-.367.36-.883l-.36-.36q-.875-.874-.875-2.124 0-1.234.88-2.117t2.12-.883q1.235 0 2.118.883l.36.36q.515-.235.882-.36V3q0-1.242.88-2.12T12 0zm0 2q-.414 0-.707.293T11 3v2.07q-1.75.25-3.195 1.32l-1.46-1.46q-.298-.298-.704-.298-.413 0-.706.293t-.293.707q0 .422.29.71l1.46 1.462Q5.32 9.25 5.07 11H3q-.413 0-.706.292T2 12t.294.706T3 13h2.07q.25 1.75 1.32 3.194l-1.46 1.46q-.29.29-.29.712 0 .414.294.707t.707.293q.407 0 .704-.297l1.46-1.462q1.446 1.07 3.196 1.32v2.07q0 .414.293.707t.707.293.707-.293.293-.707v-2.07q1.75-.25 3.195-1.32l1.46 1.46q.298.298.712.298t.707-.293.293-.707-.297-.71l-1.46-1.462Q18.68 14.75 18.93 13H21q.413 0 .706-.294T22 12t-.294-.708T21 11h-2.07q-.25-1.75-1.32-3.196l1.46-1.46q.297-.298.297-.712t-.293-.707-.707-.293-.71.297l-1.462 1.46Q14.75 5.32 13 5.07V3q0-.414-.293-.707T12 2zm0 6q1.656 0 2.828 1.172T16 12t-1.172 2.828T12 16t-2.828-1.172T8 12t1.172-2.828T12 8zm0 2q-.828 0-1.414.586T10 12t.586 1.414T12 14t1.414-.586T14 12t-.586-1.414T12 10z"/></svg>